<svg width="358" height="114" viewBox="0 0 358 114" fill="none" xmlns="http://www.w3.org/2000/svg">
<path d="M124.706 52.2337V22.8364H130.26V52.2337H126.433C128.536 52.2337 130.26 53.9302 130.26 56.0117H120.69C118.578 56.0117 116.856 54.3152 116.856 52.2337V22.8364H122.411V51.6655C122.411 51.9806 122.673 52.2337 122.987 52.2337H124.703H124.706Z" fill="#00605F"/>
<path d="M133.032 26.6131C133.032 24.5397 134.754 22.8351 136.866 22.8351H150.45C152.562 22.8351 154.283 24.5316 154.283 26.6131V56.0077H148.729V27.1786C148.729 26.8636 148.466 26.6104 148.152 26.6104H146.436V45.4573H140.882V26.6104H139.166C138.847 26.6104 138.59 26.8689 138.59 27.1786V39.4201H133.035V26.6104L133.032 26.6131Z" fill="#00605F"/>
<path d="M164.908 52.2324V22.8351H170.463V52.2324H166.635C168.739 52.2324 170.463 53.9289 170.463 56.0104H160.892C158.78 56.0104 157.059 54.3139 157.059 52.2324V22.8351H162.613V51.6642C162.613 51.9793 162.875 52.2324 163.189 52.2324H164.905H164.908Z" fill="#00605F"/>
<path d="M186.636 45.46V56.0104H181.081V45.46H177.068C174.956 45.46 173.235 43.7635 173.235 41.682V26.6131C173.235 24.5397 174.956 22.8351 177.068 22.8351H182.805C184.909 22.8351 186.639 24.5316 186.639 26.6131V41.682H188.136V45.46H186.639H186.636ZM178.789 27.1813V41.1138C178.789 41.4289 179.051 41.682 179.366 41.682H181.081V27.1813C181.081 26.8663 180.825 26.6131 180.505 26.6131H179.366C179.046 26.6131 178.789 26.8716 178.789 27.1813Z" fill="#00605F"/>
<path d="M197.385 52.2324V22.8351H202.939V52.2324H199.111C201.215 52.2324 202.939 53.9289 202.939 56.0104H193.368C191.256 56.0104 189.535 54.3139 189.535 52.2324V22.8351H195.09V51.6642C195.09 51.9793 195.352 52.2324 195.666 52.2324H197.382H197.385Z" fill="#00605F"/>
<path d="M215.052 26.6131V22.8351H224.623C226.727 22.8351 228.456 24.5316 228.456 26.6131V33.0274C228.456 35.1008 226.735 36.8054 224.623 36.8054C226.735 36.8054 228.456 38.5018 228.456 40.5834V56.0104H222.902V38.6957H215.055V34.9177H222.902V27.184C222.902 26.8689 222.64 26.6158 222.326 26.6158H215.052V26.6131Z" fill="#00605F"/>
<path d="M239.057 52.2324V22.8351H244.612V52.2324H240.784C242.888 52.2324 244.612 53.9289 244.612 56.0104H235.041C232.929 56.0104 231.208 54.3139 231.208 52.2324V22.8351H236.762V51.6642C236.762 51.9793 237.025 52.2324 237.339 52.2324H239.055H239.057Z" fill="#00605F"/>
<path d="M253.515 26.6131C253.195 26.6131 252.939 26.8716 252.939 27.1813V32.6504H247.384V26.6131C247.384 24.5397 249.105 22.8351 251.217 22.8351H256.955C259.059 22.8351 260.788 24.5316 260.788 26.6131V33.0274C260.788 35.1008 259.067 36.8054 256.955 36.8054C259.067 36.8054 260.788 38.5018 260.788 40.5834V52.2324C260.788 54.3058 259.059 56.0104 256.955 56.0104H251.217C249.105 56.0104 247.384 54.3139 247.384 52.2324V40.9604H252.939V51.6642C252.939 51.9793 253.201 52.2324 253.515 52.2324H254.654C254.974 52.2324 255.231 51.9739 255.231 51.6642V38.6957H247.384V34.9177H255.231V27.184C255.231 26.8689 254.974 26.6158 254.654 26.6158H253.515V26.6131Z" fill="#00605F"/>
<path d="M271.386 46.5588V28.8348H276.941V56.0078H271.386V50.3341H267.373C265.269 50.3341 263.54 48.6376 263.54 46.5561V22.8325H269.094V45.9879C269.094 46.303 269.356 46.5561 269.671 46.5561H271.386V46.5588Z" fill="#00605F"/>
<path d="M287.565 52.2324V22.8351H293.12V52.2324H289.292C291.396 52.2324 293.12 53.9289 293.12 56.0104H283.549C281.437 56.0104 279.716 54.3139 279.716 52.2324V22.8351H285.27V51.6642C285.27 51.9793 285.533 52.2324 285.847 52.2324H287.563H287.565Z" fill="#00605F"/>
<path d="M303.718 46.5588V28.8348H309.272V56.0078H303.718V50.3341H299.704C297.601 50.3341 295.871 48.6376 295.871 46.5561V22.8325H301.426V45.9879C301.426 46.303 301.688 46.5561 302.002 46.5561H303.718V46.5588Z" fill="#00605F"/>
<path d="M319.876 52.2324V22.8351H325.431V52.2324H321.603C323.707 52.2324 325.431 53.9289 325.431 56.0104H315.86C313.748 56.0104 312.027 54.3139 312.027 52.2324V22.8351H317.581V51.6642C317.581 51.9793 317.843 52.2324 318.158 52.2324H319.873H319.876Z" fill="#00605F"/>
<path d="M341.737 34.9096V52.2324C341.737 54.3139 340.016 56.0104 337.904 56.0104H332.166C330.054 56.0104 328.333 54.3139 328.333 52.2324V26.6131H326.836V22.8351H333.896V51.6642C333.896 51.9793 334.158 52.2324 334.472 52.2324H335.62C335.939 52.2324 336.196 51.9739 336.196 51.6642V34.9096H341.74H341.737Z" fill="#00605F"/>
<path d="M357.905 45.4599H352.35V33.2185C352.35 32.9088 352.093 32.6503 351.774 32.6503H350.058V56.0103H344.503V22.8377H350.058V28.875H354.071C356.183 28.875 357.905 30.5795 357.905 32.653V45.4626V45.4599Z" fill="#00605F"/>
<path d="M116.856 64.528V60.75H126.427C128.531 60.75 130.26 62.4464 130.26 64.528V70.9422C130.26 73.0157 128.539 74.7202 126.427 74.7202C128.539 74.7202 130.26 76.4167 130.26 78.4982V93.9252H124.706V76.6106H116.859V72.8326H124.706V65.0988C124.706 64.7838 124.444 64.5307 124.129 64.5307H116.859L116.856 64.528Z" fill="#00605F"/>
<path d="M140.882 90.1447V60.7474H146.436V90.1447H142.609C144.712 90.1447 146.436 91.8411 146.436 93.9227H136.866C134.754 93.9227 133.032 92.2262 133.032 90.1447V60.7474H138.587V89.5765C138.587 89.8915 138.849 90.1447 139.163 90.1447H140.879H140.882Z" fill="#00605F"/>
<path d="M164.089 60.75V64.528H162.592V90.1472C162.592 92.2207 160.871 93.9252 158.759 93.9252H153.021C150.917 93.9252 149.188 92.2288 149.188 90.1472V60.75H154.742V89.5791C154.742 89.8941 155.005 90.1472 155.319 90.1472H156.458C156.778 90.1472 157.035 89.8887 157.035 89.5791V60.75H164.086H164.089Z" fill="#00605F"/>
<path d="M173.338 90.1447V60.7474H178.892V90.1447H175.065C177.168 90.1447 178.892 91.8411 178.892 93.9227H169.322C167.21 93.9227 165.488 92.2262 165.488 90.1447V60.7474H171.043V89.5765C171.043 89.8915 171.305 90.1447 171.619 90.1447H173.335H173.338Z" fill="#00605F"/>
<path d="M196.566 66.7926V70.5706H195.069V90.1446C195.069 92.2261 193.347 93.9225 191.235 93.9225H185.498C183.386 93.9225 181.665 92.2261 181.665 90.1446V70.5706C181.665 68.4891 183.394 66.7926 185.498 66.7926H189.511V60.75H195.066V66.7926H196.563H196.566ZM187.79 90.1446H188.938C189.252 90.1446 189.514 89.8914 189.514 89.5764V70.5706H187.798C187.484 70.5706 187.222 70.8237 187.222 71.1388C187.216 77.2864 187.216 83.4287 187.216 89.5764C187.216 89.886 187.473 90.1446 187.793 90.1446H187.79Z" fill="#00605F"/>
<path d="M211.369 93.9225H205.814V65.0935C205.814 64.7838 205.558 64.5253 205.238 64.5253H204.09C203.776 64.5253 203.514 64.7784 203.514 65.0935V93.9225H197.965V64.528C197.965 62.4464 199.694 60.75 201.798 60.75H207.536C209.648 60.75 211.369 62.4545 211.369 64.528V93.9225Z" fill="#00605F"/>
<path d="M214.141 83.3372V64.528C214.141 62.4545 215.862 60.75 217.974 60.75H223.712C225.824 60.75 227.545 62.4464 227.545 64.528V90.1472H229.037V93.9252H221.985V65.0962C221.985 64.7811 221.723 64.528 221.409 64.528H220.269C219.95 64.528 219.693 64.7865 219.693 65.0962V83.3372H214.144H214.141Z" fill="#00605F"/>
<path d="M243.825 93.9225H238.27V65.0935C238.27 64.7838 238.014 64.5253 237.694 64.5253H236.546C236.232 64.5253 235.97 64.7784 235.97 65.0935V93.9225H230.421V64.528C230.421 62.4464 232.15 60.75 234.254 60.75H239.992C242.104 60.75 243.825 62.4545 243.825 64.528V93.9225Z" fill="#00605F"/>
<path d="M246.597 66.7496H252.152V83.5392C252.152 83.8489 252.408 84.1074 252.728 84.1074H254.444V60.7474H259.998V90.1447H261.496V93.9227H254.444V87.8854H250.43C248.318 87.8854 246.597 86.1889 246.597 84.1074V66.7496Z" fill="#00605F"/>
<path d="M67.1402 43.5905H54.269C54.269 37.6313 49.3511 32.7843 43.3048 32.7843C37.2585 32.7843 32.3406 37.6313 32.3406 43.5905H19.4694C19.4694 30.6381 30.1631 20.0985 43.3048 20.0985C56.4465 20.0985 67.1402 30.6381 67.1402 43.5905Z" fill="#4AE16E"/>
<path d="M43.3201 10.3511C46.2203 10.3511 48.5714 8.03394 48.5714 5.17556C48.5714 2.31717 46.2203 0 43.3201 0C40.42 0 38.0689 2.31717 38.0689 5.17556C38.0689 8.03394 40.42 10.3511 43.3201 10.3511Z" fill="#4AE16E"/>
<path d="M15.7523 21.6043C18.6524 21.6043 21.0035 19.2871 21.0035 16.4287C21.0035 13.5703 18.6524 11.2532 15.7523 11.2532C12.8521 11.2532 10.501 13.5703 10.501 16.4287C10.501 19.2871 12.8521 21.6043 15.7523 21.6043Z" fill="#4AE16E"/>
<path d="M5.25122 44.3941C8.15139 44.3941 10.5024 42.0769 10.5024 39.2185C10.5024 36.3601 8.15139 34.043 5.25122 34.043C2.35105 34.043 0 36.3601 0 39.2185C0 42.0769 2.35105 44.3941 5.25122 44.3941Z" fill="#4AE16E"/>
<path d="M81.0369 44.3941C83.9371 44.3941 86.2881 42.0769 86.2881 39.2185C86.2881 36.3601 83.9371 34.043 81.0369 34.043C78.1367 34.043 75.7857 36.3601 75.7857 39.2185C75.7857 42.0769 78.1367 44.3941 81.0369 44.3941Z" fill="#4AE16E"/>
<path d="M70.8673 21.6043C73.7674 21.6043 76.1185 19.2871 76.1185 16.4287C76.1185 13.5703 73.7674 11.2532 70.8673 11.2532C67.9671 11.2532 65.616 13.5703 65.616 16.4287C65.616 19.2871 67.9671 21.6043 70.8673 21.6043Z" fill="#4AE16E"/>
<path d="M43.2666 114L12.4751 83.6683L29.7779 67.1453L38.7339 76.2578L30.8243 83.8084L43.3103 96.1091L56.0641 83.6629L34.9717 62.3522H0V49.6664H40.3978L74.1974 83.8164L43.2666 114Z" fill="#00605F"/>
<path d="M85.9342 62.352H63.4512L51.304 49.6663H85.9342V62.352Z" fill="#00605F"/>
</svg>
